<?xml version="1.0" encoding="UTF-8"?>
<svg version="1.1" xmlns="http://www.w3.org/2000/svg" width="1664" height="928">

<path d="M0 0 C1.28592041 0.00161133 2.57184082 0.00322266 3.89672852 0.00488281 C13.59137835 0.12980913 21.69184511 1.35963571 30.875 4.375 C32.00808594 4.64054687 33.14117188 4.90609375 34.30859375 5.1796875 C49.1891576 8.72670045 62.72027552 17.03689865 73.875 27.375 C74.78507812 28.19355469 75.69515625 29.01210937 76.6328125 29.85546875 C88.30224444 40.85854037 98.42841357 55.45874134 101.875 71.375 C102.80957031 71.1584375 103.74414062 70.941875 104.70703125 70.71875 C129.02232004 65.41902233 154.37014294 67.87506672 175.64111328 81.50683594 C179.21284651 83.94073634 182.55366311 86.61394943 185.875 89.375 C186.59945313 89.92542969 187.32390625 90.47585937 188.0703125 91.04296875 C203.2012227 103.05869155 212.44169812 124.46602938 214.67651367 143.18896484 C215.0319681 147.10377291 215.05936467 151.00892564 215.0625 154.9375 C215.07474609 155.74896484 215.08699219 156.56042969 215.09960938 157.39648438 C215.11184118 162.44821935 214.50074957 166.58771372 212.875 171.375 C213.59945313 171.64828125 214.32390625 171.9215625 215.0703125 172.203125 C235.30369957 180.65718645 249.32840686 198.83700741 257.61938477 218.49926758 C264.34233099 235.27740294 265.23377889 254.7722391 260.875 272.375 C260.71515625 273.14585937 260.5553125 273.91671875 260.390625 274.7109375 C257.43887005 286.7174002 250.17616502 299.29928408 241.875 308.375 C240.65876953 309.71111328 240.65876953 309.71111328 239.41796875 311.07421875 C222.95066266 328.34250969 200.76120965 337.75147996 176.9609375 338.6484375 C150.67692018 339.21126022 129.54960421 333.48976049 106.875 320.375 C107.205 319.385 107.535 318.395 107.875 317.375 C110.3096607 316.38175534 112.60887403 315.59471567 115.125 314.875 C116.2082959 314.55354004 116.2082959 314.55354004 117.31347656 314.22558594 C126.99572911 311.39893097 136.40895505 309.14794555 146.51171875 308.5859375 C148.8925046 308.51871674 148.8925046 308.51871674 150.875 307.375 C150.91741723 305.04205225 150.91592937 302.70797433 150.875 300.375 C148.01467354 297.51467354 137.98421525 298.9607544 133.94873047 298.91503906 C132.16004559 298.88850167 130.37151168 298.84765281 128.58349609 298.79199219 C118.606996 298.11608671 118.606996 298.11608671 109.27832031 300.81494141 C107.53911169 302.56970393 106.22399823 304.31234894 104.875 306.375 C95.74125682 314.70118662 85.49523714 320.76477266 74.7109375 326.66015625 C66.8165023 330.9852153 59.70309135 335.43962731 52.875 341.375 C51.39193359 342.54869141 51.39193359 342.54869141 49.87890625 343.74609375 C42.65103753 350.07165376 37.88360244 358.68835566 34 367.375 C33.72615479 367.97803955 33.45230957 368.5810791 33.17016602 369.20239258 C28.84580901 379.41860219 27.35806429 389.91548625 27.5 400.9375 C27.50797607 402.08790771 27.51595215 403.23831543 27.52416992 404.42358398 C27.73395004 417.50341851 29.15566083 430.41855122 30.875 443.375 C30.98714844 444.26606445 31.09929687 445.15712891 31.21484375 446.07519531 C33.9571656 467.42975715 40.9326737 487.58585751 58.35546875 501.33203125 C70.03616557 508.85874454 83.15554856 510.49596454 96.7109375 510.5859375 C99.0794337 510.61403111 101.44792318 510.6426957 103.81640625 510.671875 C107.51969022 510.71288698 111.22285224 510.74980529 114.92626953 510.77636719 C131.71576216 510.90698967 147.75197353 511.23292359 163.6875 517.125 C164.39849854 517.38466553 165.10949707 517.64433105 165.84204102 517.91186523 C173.84380003 520.95829398 180.36082302 525.52915091 187.23046875 530.5703125 C188.01558838 531.14386475 188.80070801 531.71741699 189.60961914 532.30834961 C191.16187608 533.44745349 192.7071169 534.59620361 194.24389648 535.75610352 C201.64936424 541.24142226 208.73061943 544.46944957 217.8125 546 C224.66631484 547.16631484 224.66631484 547.16631484 226.875 549.375 C226.67002308 552.51797948 226.09840718 554.90336262 224.75 557.75 C221.90334259 560.21710309 219.56365939 559.56396821 215.875 559.375 C201.78183354 556.88989408 189.13751892 550.56770756 176.9375 543.3125 C165.02175429 536.30975049 152.36961822 531.19807136 138.5 531.1875 C137.66210938 531.17525391 136.82421875 531.16300781 135.9609375 531.15039062 C131.11099738 531.13895209 127.48072799 531.75560634 122.875 533.375 C120.08943514 533.74221652 117.30577289 533.87823047 114.5 534 C113.39591797 534.05800781 113.39591797 534.05800781 112.26953125 534.1171875 C110.47172594 534.21057998 108.67339892 534.2938371 106.875 534.375 C106.875 535.035 106.875 535.695 106.875 536.375 C107.514375 536.6225 108.15375 536.87 108.8125 537.125 C110.875 538.375 110.875 538.375 111.875 540.25 C111.875 540.95125 111.875 541.6525 111.875 542.375 C110.54166667 543.70833333 109.20833333 545.04166667 107.875 546.375 C106.04524044 549.63153635 104.46652651 552.99706617 102.875 556.375 C102.21194424 557.71013268 101.54659122 559.04414033 100.875 560.375 C97.26692696 557.59162937 94.09383646 554.59383646 90.875 551.375 C82.31704119 542.86317574 71.70097698 539.22112573 60.5 535.4375 C45.04191421 530.20297656 30.0695458 523.72760226 18.875 511.375 C21.65135616 527.93740052 30.54290873 543.35114189 43.8125 553.65625 C51.03736305 558.58860843 58.70381137 562.25347557 66.625 565.9375 C80.65459002 572.48269704 94.53846508 582.16197691 101.875 596.375 C101.875 600.09716239 100.92673512 601.31373473 98.5 604.1875 C95.875 606.375 95.875 606.375 92.875 606.375 C91.18359375 604.28515625 91.18359375 604.28515625 89.3125 601.4375 C79.90366482 588.12827497 68.20999379 582.05347268 52.875 577.375 C53.37 578.426875 53.865 579.47875 54.375 580.5625 C58.44805977 591.54036584 55.56401218 603.29791545 51.125 613.6875 C49.89078147 616.37599152 48.55514046 618.95877951 47.1328125 621.5546875 C43.12406049 629.02327527 41.04449016 634.86180379 40.5546875 643.51171875 C39.875 646.375 39.875 646.375 37.5234375 648.25390625 C34.43208397 649.56248805 32.20071564 649.67733779 28.875 649.375 C27.04359601 647.54359601 27.57299305 644.84553403 27.5 642.375 C27.5371098 633.33876367 29.58998202 623.44386698 33.92797852 615.4296875 C37.2636316 608.19254999 36.25054466 595.63698154 33.66015625 588.265625 C29.78980417 580.06958529 24.274943 573.68480296 17.875 567.375 C14.68391791 567.65122123 13.82373376 568.43133067 11.62109375 570.8515625 C10.85925781 571.89054688 10.09742188 572.92953125 9.3125 574 C8.91554932 574.54108398 8.51859863 575.08216797 8.10961914 575.63964844 C5.40064429 579.41562421 3.36981242 582.9902169 1.875 587.375 C-6.69642857 586.375 -6.69642857 586.375 -10.125 585.375 C-9.81311874 578.3576717 -6.57566917 573.36219925 -3.125 567.375 C-2.12545852 565.63655697 -1.14492711 563.88698771 -0.1875 562.125 C0.44478516 561.00351563 0.44478516 561.00351563 1.08984375 559.859375 C2.20667962 556.32550629 1.76930472 553.95221888 0.875 550.375 C-0.91238673 547.51930808 -0.91238673 547.51930808 -3.25 544.875 C-6.89078914 540.26294603 -9.67044175 535.77383806 -12.125 530.4375 C-12.4152002 529.81101562 -12.70540039 529.18453125 -13.00439453 528.5390625 C-14.49672083 525.18470973 -15.57368717 522.00677329 -16.125 518.375 C-16.785 518.375 -17.445 518.375 -18.125 518.375 C-18.455 519.550625 -18.785 520.72625 -19.125 521.9375 C-25.45718605 540.6409014 -38.31607296 556.29151829 -53.25 568.875 C-60.9782733 575.58720549 -65.15241756 582.62620814 -68.125 592.375 C-68.455 593.365 -68.785 594.355 -69.125 595.375 C-69.93773469 606.7532856 -68.43634786 616.0481378 -64.19140625 626.72265625 C-61.73082768 633.20963611 -61.61049193 639.47861305 -62.125 646.375 C-62.455 647.035 -62.785 647.695 -63.125 648.375 C-65.0121875 648.436875 -65.0121875 648.436875 -66.9375 648.5 C-67.64519531 648.52320313 -68.35289062 648.54640625 -69.08203125 648.5703125 C-71.125 648.375 -71.125 648.375 -74.125 646.375 C-74.63520252 643.95526756 -75.0030784 641.63279011 -75.3125 639.1875 C-76.50176614 631.44759411 -79.25090364 625.48361347 -83.1875 618.77734375 C-88.13886793 610.08250209 -89.30484587 602.72713681 -89.3125 592.9375 C-89.32474609 592.11701172 -89.33699219 591.29652344 -89.34960938 590.45117188 C-89.36178721 585.36489627 -88.76582158 581.19369738 -87.125 576.375 C-87.73085938 576.68953125 -88.33671875 577.0040625 -88.9609375 577.328125 C-93.32996019 579.55968736 -97.64363549 581.61730064 -102.25 583.3125 C-113.19951787 587.62387266 -121.05180568 596.50605923 -127.125 606.375 C-130.56095166 604.84791037 -133.24412454 602.77572955 -136.125 600.375 C-135.95773394 593.85162365 -132.11308525 590.12969343 -128.125 585.375 C-127.403125 584.385 -126.68125 583.395 -125.9375 582.375 C-118.29134067 573.44625911 -107.64894446 568.36914408 -97.26757812 563.40625 C-80.47009179 555.32140699 -69.62211789 547.63666463 -60.125 531.375 C-59.68027344 530.61832031 -59.23554687 529.86164062 -58.77734375 529.08203125 C-55.9248275 523.82168759 -54.52972711 518.1641784 -53.125 512.375 C-53.83462891 512.92027344 -53.83462891 512.92027344 -54.55859375 513.4765625 C-65.76299858 521.99453109 -77.11196917 528.80645127 -90.47265625 533.4453125 C-93.91269723 534.65110006 -97.28194179 536.00532592 -100.65625 537.3828125 C-102.31300184 538.04865897 -103.98017684 538.68909273 -105.65625 539.3046875 C-116.07853723 543.19696144 -128.92639306 550.97778611 -134.125 561.375 C-134.785 561.375 -135.445 561.375 -136.125 561.375 C-136.26035156 560.76914062 -136.39570312 560.16328125 -136.53515625 559.5390625 C-138.16643891 553.18975875 -140.68770103 548.67818273 -144.69921875 543.50390625 C-146.125 541.375 -146.125 541.375 -146.125 538.375 C-145.465 538.045 -144.805 537.715 -144.125 537.375 C-143.795 536.385 -143.465 535.395 -143.125 534.375 C-144.01960937 534.33761719 -144.91421875 534.30023437 -145.8359375 534.26171875 C-151.57841424 533.94949453 -156.95890936 533.64735184 -162.4375 531.8125 C-173.31101904 528.20567417 -185.85564726 530.81914169 -196.125 535.375 C-197.01960937 535.75140625 -197.91421875 536.1278125 -198.8359375 536.515625 C-205.72244605 539.53389323 -212.06092585 543.07457074 -218.5 546.9375 C-226.47318797 551.69525549 -234.15129494 554.97112062 -243.125 557.375 C-243.80691406 557.56964844 -244.48882813 557.76429688 -245.19140625 557.96484375 C-249.49036526 558.87674415 -253.78538961 559.0785429 -258.125 558.375 C-260.875 555.625 -260.875 555.625 -262.125 552.375 C-261.703125 550.171875 -261.703125 550.171875 -261.125 548.375 C-260.55168945 548.2298999 -259.97837891 548.0847998 -259.38769531 547.93530273 C-243.61199061 543.87430855 -232.11326259 538.46607957 -219.09765625 528.57421875 C-211.41847484 522.89303723 -203.75215804 518.98086454 -194.6875 516.0625 C-193.56202759 515.69862183 -193.56202759 515.69862183 -192.41381836 515.32739258 C-181.65979931 512.07671196 -170.82903396 511.09311444 -159.640625 511.13671875 C-157.29947337 511.12129875 -154.95832743 511.10499509 -152.6171875 511.08789062 C-148.99954453 511.07150017 -145.38232526 511.06248563 -141.76464844 511.06958008 C-119.96487542 511.08591061 -101.03022287 509.43188381 -84.48046875 493.8828125 C-73.46523732 482.15515317 -69.63002091 466.9642445 -66.58007812 451.62133789 C-66.27470722 450.11397861 -65.95019227 448.6103811 -65.60742188 447.11108398 C-63.97548242 439.7286813 -63.45936227 432.34812706 -63 424.8125 C-62.95930389 424.14726318 -62.91860779 423.48202637 -62.87667847 422.79663086 C-62.60602105 418.32376693 -62.3634091 413.84970736 -62.125 409.375 C-62.07005371 408.48699707 -62.01510742 407.59899414 -61.95849609 406.68408203 C-61.1319171 392.68634244 -63.22126265 376.75846621 -70.125 364.375 C-70.55039062 363.50359375 -70.97578125 362.6321875 -71.4140625 361.734375 C-75.05053408 354.63155917 -79.43234029 348.95380652 -85.125 343.375 C-86.14992554 342.35563354 -86.14992554 342.35563354 -87.19555664 341.31567383 C-93.56194952 335.24886078 -100.23551526 331.24650573 -108.0625 327.3125 C-118.81031892 321.85378893 -128.67983188 315.83360393 -137.5625 307.625 C-138.34496094 306.90828125 -139.12742187 306.1915625 -139.93359375 305.453125 C-142.125 303.375 -142.125 303.375 -143.7043457 301.28320312 C-147.30875647 298.44184412 -150.57536818 298.77222477 -155.046875 298.765625 C-155.90686096 298.74908875 -156.76684692 298.73255249 -157.65289307 298.71551514 C-160.39366788 298.66701632 -163.1338878 298.64566044 -165.875 298.625 C-167.73570503 298.59684183 -169.59638419 298.56691461 -171.45703125 298.53515625 C-176.01297515 298.46125703 -180.56861067 298.41169405 -185.125 298.375 C-185.145625 299.633125 -185.16625 300.89125 -185.1875 302.1875 C-185.19910156 302.89519531 -185.21070313 303.60289062 -185.22265625 304.33203125 C-185.20763217 306.57805461 -185.20763217 306.57805461 -184.125 309.375 C-183.36058594 309.32859375 -182.59617187 309.2821875 -181.80859375 309.234375 C-172.61772239 308.92469462 -164.88197177 310.74125279 -156.125 313.375 C-154.06386351 313.92183213 -152.00149931 314.46407475 -149.9375 315 C-146.76677165 315.82799358 -144.01383889 316.82100391 -141.125 318.375 C-141.125 319.035 -141.125 319.695 -141.125 320.375 C-155.26852175 328.29080975 -169.10902092 334.02328542 -185.12890625 336.9453125 C-187.18495596 337.30123954 -187.18495596 337.30123954 -189.125 338.375 C-219.60908915 340.3306278 -244.78420895 335.72291741 -268.9375 316.5 C-276.40469465 309.67392812 -282.39334024 301.27157475 -287.125 292.375 C-287.63933594 291.41207031 -288.15367187 290.44914062 -288.68359375 289.45703125 C-299.76744457 267.20640803 -299.69730734 242.94826882 -292.25390625 219.546875 C-289.37600438 211.46086698 -285.13824263 204.30998564 -280.125 197.375 C-279.56296875 196.59511719 -279.0009375 195.81523437 -278.421875 195.01171875 C-270.33076231 184.35388754 -260.28929195 175.67406568 -249.125 168.375 C-248.15691406 167.69566406 -247.18882812 167.01632813 -246.19140625 166.31640625 C-240.05334484 162.0549496 -234.1749208 158.83400814 -227.125 156.375 C-227.08761719 155.05628906 -227.05023437 153.73757812 -227.01171875 152.37890625 C-225.93199567 120.7859132 -218.14420428 93.30451791 -194.75 71 C-188.98898824 65.97566934 -182.73520261 62.17104473 -176.125 58.375 C-175.23554687 57.83617187 -174.34609375 57.29734375 -173.4296875 56.7421875 C-166.55870954 52.66618363 -158.79775297 50.44280913 -151.125 48.375 C-150.1858374 48.1176709 -149.2466748 47.8603418 -148.27905273 47.59521484 C-140.23341687 45.5471463 -132.72152616 44.91522884 -124.4375 45 C-123.29216797 44.98839844 -122.14683594 44.97679687 -120.96679688 44.96484375 C-114.67085232 44.98644219 -109.25436887 45.55464596 -103.30224609 47.65258789 C-99.48955852 48.91764088 -95.99042239 49.72644467 -92.125 48.375 C-90.0345118 46.18276237 -88.56537723 43.86498936 -86.97265625 41.2890625 C-73.11310348 19.43023298 -48.32835938 8.1631714 -24.125 2.375 C-22.95469238 2.08133545 -22.95469238 2.08133545 -21.76074219 1.78173828 C-14.53010406 0.12551733 -7.39625021 -0.00963995 0 0 Z " fill="#4B5826" transform="translate(849.125,76.625)"/>
<path d="M0 0 C5.80187884 4.1968731 9.7730692 8.81665975 11.58984375 15.82421875 C11.68265625 16.571875 11.77546875 17.31953125 11.87109375 18.08984375 C14.47290148 37.83992969 30.14991688 60.60060069 45.30859375 73.05859375 C48.0148422 75.08067827 50.76129983 76.97775177 53.58984375 78.82421875 C54.43675781 79.37980469 55.28367187 79.93539062 56.15625 80.5078125 C66.37994423 86.92362061 77.49171293 90.14698684 88.98046875 93.5546875 C89.72329102 93.77535889 90.46611328 93.99603027 91.23144531 94.22338867 C97.33533523 95.77842729 103.18879405 95.98437409 109.44921875 96.03515625 C111.38933127 96.06323035 113.32943533 96.09189485 115.26953125 96.12109375 C118.30175485 96.16224186 121.33382124 96.19916628 124.36621094 96.22558594 C127.31087139 96.25341101 130.25483329 96.2992805 133.19921875 96.34765625 C134.09122986 96.35090912 134.98324097 96.35416199 135.90228271 96.35751343 C146.25899904 96.55683484 153.784769 99.01828231 161.28515625 106.23828125 C164.27014478 109.58753957 166.52990665 113.1540492 168.8203125 117 C171.94492058 121.98695727 175.77813869 126.35576721 179.58984375 130.82421875 C180.31171875 131.73945312 181.03359375 132.6546875 181.77734375 133.59765625 C182.49921875 134.47679687 183.22109375 135.3559375 183.96484375 136.26171875 C184.59132813 137.04417969 185.2178125 137.82664062 185.86328125 138.6328125 C193.40296354 144.69264311 204.22773032 146.10417062 213.46484375 148.07421875 C214.64175781 148.34234375 215.81867188 148.61046875 217.03125 148.88671875 C225.40623111 150.69254526 234.34361268 152.22008265 242.84541321 150.32015991 C246.05650557 149.73988912 249.07234201 149.6970158 252.33618164 149.69482422 C253.32250328 149.69219574 253.32250328 149.69219574 254.32875061 149.68951416 C256.4900277 149.68513311 258.65122216 149.68802005 260.8125 149.69140625 C262.32034826 149.69073222 263.82819642 149.68976136 265.33604431 149.68850708 C268.49072304 149.68703525 271.6453734 149.68916841 274.80004883 149.69384766 C278.84074946 149.69954954 282.88138374 149.69625978 286.92208195 149.69027519 C290.03361002 149.68665986 293.14512238 149.68781256 296.25665092 149.69040298 C297.74657639 149.69106931 299.23650329 149.69025413 300.72642708 149.68792343 C302.80862324 149.68538044 304.8907122 149.6892605 306.97290039 149.69482422 C308.74897423 149.69601761 308.74897423 149.69601761 310.56092834 149.69723511 C313.1186104 149.80446286 315.1543647 150.11475598 317.58984375 150.82421875 C334.02302748 152.56977696 359.30213569 149.10491146 372.453125 138.51953125 C380.85303285 130.50302168 387.76525136 121.06523998 394.21484375 111.44921875 C399.71090153 103.551846 405.27394264 99.21419446 414.58984375 96.82421875 C417.70851873 96.44998192 420.77961694 96.42837063 423.91796875 96.453125 C425.69531737 96.43933505 427.47266114 96.42490797 429.25 96.40991211 C430.16410645 96.40700165 431.07821289 96.40409119 432.02001953 96.40109253 C455.11521341 96.28336703 474.83632285 94.61426778 495.58984375 83.82421875 C496.56655029 83.32051758 496.56655029 83.32051758 497.56298828 82.80664062 C515.39249604 73.46933244 526.3840344 61.26259727 536.52734375 44.01171875 C537.51444336 42.37299805 537.51444336 42.37299805 538.52148438 40.70117188 C542.60867696 33.82782753 545.43652647 27.95170477 546.40234375 19.94921875 C547.87229475 10.8129079 552.1888249 5.2118622 559.58984375 -0.17578125 C563.85341525 -2.307567 568.97149125 -1.74952492 573.58984375 -1.17578125 C581.16453072 1.72345597 585.2796628 7.66004142 588.58984375 14.82421875 C589.62332958 18.12234281 589.71791728 21.15043945 589.72355652 24.59757996 C589.7278215 25.7764679 589.73208649 26.95535583 589.73648071 28.16996765 C589.73602753 29.45990128 589.73557434 30.7498349 589.73510742 32.07885742 C589.73810037 33.45399059 589.74150321 34.82912292 589.74528503 36.20425415 C589.754118 39.93797807 589.75646292 43.67167907 589.75710082 47.40541244 C589.75781201 49.74059204 589.75994771 52.07576583 589.76259804 54.41094398 C589.77185091 62.56506342 589.77593322 70.71916651 589.77514648 78.87329102 C589.77454652 86.46106651 589.7850825 94.04877072 589.80089015 101.63652819 C589.81399341 108.15984117 589.81932917 114.68313094 589.81869107 121.20645696 C589.8184368 125.09842484 589.82124878 128.99032944 589.83186913 132.88228416 C589.84159644 136.54716886 589.84159774 140.21193041 589.83435249 143.87681961 C589.8328189 145.85149486 589.84112199 147.82617022 589.84979248 149.80082703 C589.80879557 161.46107694 588.29685078 171.5813426 580.07421875 180.4609375 C574.43033512 185.40676184 569.39626734 187.37216353 561.984375 187.10546875 C556.93909126 186.51287425 554.29400695 184.56038936 550.83984375 180.94921875 C547.08168481 175.72955355 546.28237075 171.49259568 546.2199707 165.14746094 C546.20522202 164.39065536 546.19047333 163.63384979 546.17527771 162.85411072 C546.1309062 160.35978464 546.10256648 157.86569116 546.078125 155.37109375 C546.0687258 154.51534004 546.05932659 153.65958633 546.04964256 152.7779007 C546.00214319 148.24827816 545.96843324 143.7187702 545.94458008 139.18896484 C545.9168833 134.52667351 545.83770508 129.8667326 545.74703693 125.20530319 C545.68704513 121.60543574 545.66729651 118.00612196 545.65807152 114.40579987 C545.64653351 112.68817377 545.61980461 110.97057583 545.57714272 109.25344086 C545.26357758 95.83742253 545.26357758 95.83742253 548.57279968 90.81419373 C550.80069257 88.58133878 553.06795656 86.70905971 555.58984375 84.82421875 C563.41633635 75.32874873 572.79398514 62.89700694 573.90234375 50.26171875 C573.84948414 47.88004331 573.84948414 47.88004331 572.58984375 46.82421875 C570.9236726 46.78358043 569.2559628 46.78149775 567.58984375 46.82421875 C567.09955688 47.70775024 567.09955688 47.70775024 566.59936523 48.60913086 C565.08309791 51.33105334 563.55530938 54.04634717 562.02734375 56.76171875 C561.25680664 58.15100586 561.25680664 58.15100586 560.47070312 59.56835938 C556.97313109 65.7597136 553.10774294 71.33755298 548.58984375 76.82421875 C547.86539063 77.73171875 547.1409375 78.63921875 546.39453125 79.57421875 C537.14153737 90.36313469 524.93015391 97.10745607 512.58984375 103.82421875 C511.86490723 104.22286133 511.1399707 104.62150391 510.39306641 105.03222656 C501.15134873 110.0965553 491.95218513 114.82777553 482.02026367 118.40454102 C477.4804699 120.12026767 475.10970096 121.67092275 472.58984375 125.82421875 C472.01661432 129.0133887 472.0564846 132.15134839 472.09155273 135.38452148 C472.08603394 136.34121735 472.08051514 137.29791321 472.0748291 138.28359985 C472.06551634 140.35700365 472.06539794 142.43046465 472.07342339 144.50387383 C472.08604935 147.78689518 472.07476675 151.0690753 472.05738831 154.35206604 C472.03067472 160.13824409 472.02509306 165.92421617 472.02648926 171.71044922 C472.02871684 180.96829418 472.01459915 190.22588408 471.9709034 199.48362923 C471.96106655 202.71541368 471.96978207 205.9467974 471.979599 209.17857361 C471.97345404 211.16389223 471.96654205 213.14920868 471.95874023 215.13452148 C471.9664595 216.03081772 471.97417877 216.92711395 471.98213196 217.85057068 C471.93268102 223.9538919 470.95196195 228.28589415 466.65234375 232.90625 C465.97171875 233.47730469 465.29109375 234.04835938 464.58984375 234.63671875 C463.90921875 235.22066406 463.22859375 235.80460938 462.52734375 236.40625 C458.13776429 239.61878497 452.80517993 239.56926678 447.58984375 238.82421875 C444.46519189 237.14940535 442.19730183 235.0391349 440.58984375 231.82421875 C440.43376352 229.41861602 440.33179917 227.03719103 440.2734375 224.62890625 C440.2526564 223.92146271 440.23187531 223.21401917 440.21046448 222.48513794 C440.14503297 220.2232645 440.08611401 217.96127413 440.02734375 215.69921875 C439.98415242 214.16665453 439.94053793 212.63410218 439.89648438 211.1015625 C439.7893582 207.34256802 439.68807285 203.58345583 439.58984375 199.82421875 C438.92984375 199.49421875 438.26984375 199.16421875 437.58984375 198.82421875 C437.6055542 200.03480957 437.62126465 201.24540039 437.63745117 202.49267578 C437.69189344 206.99895533 437.72624582 211.50520599 437.75463867 216.01171875 C437.76969274 217.95935969 437.79014055 219.90696691 437.81616211 221.85449219 C437.85269428 224.65959003 437.86960408 227.46423829 437.8828125 230.26953125 C437.89829636 231.13538849 437.91378021 232.00124573 437.92973328 232.89334106 C437.93132836 238.6684808 437.13916249 243.02926253 433.08984375 247.46875 C427.83918016 251.55715733 423.91455629 252.29481794 417.38671875 252.234375 C412.90948291 251.57779712 410.27713227 249.37319217 407.58984375 245.82421875 C404.31834958 240.55727767 404.17537924 236.332286 404.24926758 230.33056641 C404.2488295 229.39334747 404.24839142 228.45612854 404.24794006 227.49050903 C404.25002276 224.40621796 404.27332961 221.32247685 404.296875 218.23828125 C404.30247279 216.09451596 404.30674202 213.95074682 404.30973816 211.80697632 C404.32117246 206.17463518 404.35062767 200.54252747 404.3838501 194.91027832 C404.41458136 189.15896766 404.42825004 183.40761916 404.44335938 177.65625 C404.47549856 166.3788039 404.52667797 155.10153076 404.58984375 143.82421875 C403.31445984 144.93033605 402.04048122 146.0380738 400.76708984 147.14648438 C400.05749115 147.76317993 399.34789246 148.37987549 398.61679077 149.01525879 C396.01183881 151.34006242 393.6275777 153.80012785 391.21484375 156.32421875 C378.37400602 169.3232827 364.92014198 172.6351151 347.27734375 175.88671875 C345.99150391 176.12970703 344.70566406 176.37269531 343.38085938 176.62304688 C340.16930788 177.22872717 336.95656059 177.82741123 333.74326897 178.42376137 C330.1937514 179.08384025 326.64534879 179.74984823 323.09692383 180.41577148 C322.36938148 180.55224846 321.64183914 180.68872543 320.89225006 180.82933807 C319.12476955 181.16090237 317.35730494 181.49255146 315.58984375 181.82421875 C315.5998365 183.08209702 315.5998365 183.08209702 315.61003113 184.36538696 C315.67022303 192.28077248 315.71585917 200.19608077 315.74528027 208.11164284 C315.76091462 212.1808107 315.78211184 216.24978892 315.81616211 220.31884766 C315.84883558 224.24811026 315.86671354 228.17719082 315.87447548 232.10657883 C315.8800047 233.60325357 315.89080199 235.09991872 315.90703392 236.59651566 C315.92891518 238.69818652 315.93180633 240.79911187 315.93041992 242.90087891 C315.94041267 244.69291245 315.94041267 244.69291245 315.9506073 246.52114868 C315.27486762 252.70806947 312.37946257 256.70343614 307.68359375 260.50390625 C298.83470809 266.08398713 287.4986719 266.04737071 277.40234375 266.13671875 C276.32919922 266.16572266 275.25605469 266.19472656 274.15039062 266.22460938 C263.51308645 266.30826633 255.13517409 263.85963949 247.1484375 256.703125 C243.6901311 252.53408897 243.33069437 248.38949858 243.27099609 243.10620117 C243.26095047 242.45198181 243.25090485 241.79776245 243.24055481 241.12371826 C243.20982925 238.9757164 243.19271779 236.82783856 243.17578125 234.6796875 C243.157061 233.18466635 243.13748694 231.68965567 243.11709595 230.19465637 C243.06585912 226.27058089 243.0261884 222.34647119 242.98895264 218.42224121 C242.94885984 214.41357007 242.89779162 210.40504026 242.84765625 206.39648438 C242.75099708 198.5391592 242.66656052 190.68176383 242.58984375 182.82421875 C240.19099171 182.17606859 237.79159741 181.53005745 235.3918457 180.88525391 C234.71690315 180.70265518 234.0419606 180.52005646 233.34656525 180.33192444 C228.51499656 179.03615922 223.71494997 177.97773949 218.77734375 177.19921875 C217.33452293 176.95639663 215.89181351 176.71291157 214.44921875 176.46875 C213.175625 176.25605469 211.90203125 176.04335938 210.58984375 175.82421875 C208.1256735 175.38418835 205.67709942 174.91906394 203.23046875 174.390625 C201.12462135 173.93892696 199.00703679 173.54205169 196.88671875 173.1640625 C179.84489363 169.84854831 169.58912814 158.28500907 157.98754883 146.15600586 C156.60783276 144.71103354 156.60783276 144.71103354 154.58984375 143.82421875 C154.5998365 145.56403015 154.5998365 145.56403015 154.61003113 147.33898926 C154.67092322 158.28527917 154.71585531 169.23153459 154.74528027 180.17795563 C154.76091662 185.8052325 154.78211798 191.43237231 154.81616211 197.05957031 C154.8488277 202.49309125 154.86671204 207.92648059 154.87447548 213.36009216 C154.88000604 215.43006969 154.89080587 217.50004025 154.90703392 219.56996155 C154.92890371 222.47583416 154.93180666 225.38116732 154.93041992 228.28710938 C154.94120575 229.13731659 154.95199158 229.9875238 154.96310425 230.86349487 C154.93276621 236.76285331 154.32054797 242.80933766 150.17320538 247.38828278 C144.85734572 251.99935379 140.23893123 252.17917764 133.47265625 252.09765625 C130.58984375 251.82421875 130.58984375 251.82421875 127.58984375 250.26171875 C122.34348552 243.86771965 120.99205784 239.29036587 120.98046875 231.171875 C120.9639325 230.27174179 120.94739624 229.37160858 120.93035889 228.44419861 C120.88208256 225.5916345 120.86055347 222.7396027 120.83984375 219.88671875 C120.811667 217.94333289 120.7817372 215.9999716 120.75 214.05664062 C120.67632917 209.31254386 120.62663035 204.56873907 120.58984375 199.82421875 C119.92984375 199.49421875 119.26984375 199.16421875 118.58984375 198.82421875 C118.60031738 199.7371167 118.61079102 200.65001465 118.62158203 201.59057617 C118.65575656 204.9918065 118.68078759 208.39285317 118.69970703 211.79418945 C118.70973727 213.26361987 118.72336476 214.73303046 118.74072266 216.20239258 C118.76510273 218.31987412 118.77635661 220.43709074 118.78515625 222.5546875 C118.79562988 223.82723389 118.80610352 225.09978027 118.81689453 226.41088867 C118.49547535 231.24289034 117.65418758 233.83970071 114.08984375 237.13671875 C109.43944532 239.37887514 105.66579363 239.62874022 100.58984375 238.82421875 C94.87603846 236.07719697 89.99721554 231.17093425 87.52375793 225.28907776 C86.34371614 220.91107547 86.32074653 216.92189452 86.3503418 212.40991211 C86.34832764 211.48072464 86.34631348 210.55153717 86.34423828 209.5941925 C86.34070268 207.5840834 86.34144762 205.57396315 86.34601402 203.56385612 C86.35161897 200.38200462 86.34243012 197.200516 86.32881165 194.01869202 C86.29172481 184.97492802 86.27316627 175.93128914 86.28442383 166.88745117 C86.29027166 161.34957701 86.27203402 155.81221601 86.23853493 150.27444649 C86.23057803 148.16574093 86.23186179 146.05697949 86.24255943 143.94828606 C86.25687135 141.00133175 86.2406328 138.05599558 86.2175293 135.10913086 C86.22929703 134.23886261 86.24106476 133.36859436 86.25318909 132.47195435 C86.18588825 128.09660704 86.0226361 126.36823514 83.21046448 122.83335876 C80.61542762 120.84383303 78.30036442 119.50610491 75.29296875 118.23828125 C74.26349121 117.78984863 73.23401367 117.34141602 72.17333984 116.87939453 C70.52325928 116.17145752 70.52325928 116.17145752 68.83984375 115.44921875 C59.14854444 111.14121362 50.04054194 106.43953992 40.96484375 100.94921875 C39.94165039 100.33127441 38.91845703 99.71333008 37.86425781 99.07666016 C17.09980483 86.3067631 5.14934651 72.04746381 -5.87890625 50.7109375 C-7.13550441 48.0010994 -7.13550441 48.0010994 -8.41015625 46.82421875 C-10.91015625 46.65755208 -10.91015625 46.65755208 -13.41015625 46.82421875 C-14.7923853 47.99795677 -14.7923853 47.99795677 -14.7890625 51.265625 C-14.71028299 56.87897774 -12.11389889 61.01390622 -9.34765625 65.76171875 C-8.88166016 66.60412109 -8.41566406 67.44652344 -7.93554688 68.31445312 C-3.61762593 75.94571749 1.63551504 82.73355737 7.40234375 89.32421875 C7.96566406 89.97390625 8.52898438 90.62359375 9.109375 91.29296875 C10.53137859 92.93339305 10.53137859 92.93339305 12.58984375 93.82421875 C12.75254065 104.08197611 12.87666839 114.33942302 12.95252895 124.59821129 C12.98895188 129.36265237 13.03829906 134.12620619 13.11791992 138.89013672 C13.1943746 143.4938075 13.23591619 148.09662879 13.25398445 152.70088577 C13.26684836 154.45114122 13.2919689 156.20135386 13.32995415 157.95124435 C13.67396295 174.4663675 13.67396295 174.4663675 7.41444397 182.07876587 C3.13424288 186.17330079 -1.12446022 186.99990964 -6.84765625 187.38671875 C-12.92843046 187.20346254 -16.17034132 185.00812403 -20.41015625 180.82421875 C-20.96574219 180.31761719 -21.52132812 179.81101562 -22.09375 179.2890625 C-30.5044224 170.75254462 -30.99940952 158.8093663 -30.92773438 147.49365234 C-30.93316932 146.09925104 -30.94029961 144.70485549 -30.94897461 143.31047058 C-30.96704489 139.56048315 -30.9602098 135.8109411 -30.94745827 132.06094694 C-30.9372492 128.11651734 -30.94674531 124.17212294 -30.95300293 120.22769165 C-30.96025482 113.60908235 -30.95075481 106.99065232 -30.93164062 100.37207031 C-30.90985848 92.7419969 -30.91694272 85.1123509 -30.93894625 77.48228776 C-30.95714918 70.90441229 -30.95963531 64.32666481 -30.94919157 57.74877226 C-30.94298572 53.83169469 -30.94204049 49.91481749 -30.95533752 45.99775314 C-30.96696782 42.3153608 -30.95874119 38.63351523 -30.9357605 34.95118141 C-30.9280266 32.97082375 -30.93976643 30.99041935 -30.95227051 29.01008606 C-30.86935375 20.19133313 -29.50593584 12.62050612 -24.09765625 5.44921875 C-17.47287779 -1.02149509 -8.96483667 -4.37344544 0 0 Z " fill="#B06D35" transform="translate(552.41015625,585.17578125)"/>
<path d="M0 0 C5.80187884 4.1968731 9.7730692 8.81665975 11.58984375 15.82421875 C11.68265625 16.571875 11.77546875 17.31953125 11.87109375 18.08984375 C13.64414151 31.54888814 21.46183463 43.10520716 28.90795898 54.15283203 C31.23766322 57.62086225 33.24058698 60.83072888 34.58984375 64.82421875 C33.46835937 64.95376953 33.46835937 64.95376953 32.32421875 65.0859375 C26.25784058 65.91273704 26.25784058 65.91273704 20.96484375 68.76171875 C18.91790633 73.32080664 18.76330432 77.87191948 18.58984375 82.82421875 C6.64546319 78.62156633 0.67795673 63.26373923 -4.83349609 52.6875 C-6.329438 49.55473956 -6.329438 49.55473956 -8.41015625 46.82421875 C-10.91015625 46.65755208 -10.91015625 46.65755208 -13.41015625 46.82421875 C-14.7923853 47.99795677 -14.7923853 47.99795677 -14.7890625 51.265625 C-14.71028299 56.87897774 -12.11389889 61.01390622 -9.34765625 65.76171875 C-8.88166016 66.60412109 -8.41566406 67.44652344 -7.93554688 68.31445312 C-3.61762593 75.94571749 1.63551504 82.73355737 7.40234375 89.32421875 C7.96566406 89.97390625 8.52898438 90.62359375 9.109375 91.29296875 C10.53137859 92.93339305 10.53137859 92.93339305 12.58984375 93.82421875 C12.75254065 104.08197611 12.87666839 114.33942302 12.95252895 124.59821129 C12.98895188 129.36265237 13.03829906 134.12620619 13.11791992 138.89013672 C13.1943746 143.4938075 13.23591619 148.09662879 13.25398445 152.70088577 C13.26684836 154.45114122 13.2919689 156.20135386 13.32995415 157.95124435 C13.67396295 174.4663675 13.67396295 174.4663675 7.41444397 182.07876587 C3.13424288 186.17330079 -1.12446022 186.99990964 -6.84765625 187.38671875 C-12.92843046 187.20346254 -16.17034132 185.00812403 -20.41015625 180.82421875 C-20.96574219 180.31761719 -21.52132812 179.81101562 -22.09375 179.2890625 C-30.5044224 170.75254462 -30.99940952 158.8093663 -30.92773438 147.49365234 C-30.93316932 146.09925104 -30.94029961 144.70485549 -30.94897461 143.31047058 C-30.96704489 139.56048315 -30.9602098 135.8109411 -30.94745827 132.06094694 C-30.9372492 128.11651734 -30.94674531 124.17212294 -30.95300293 120.22769165 C-30.96025482 113.60908235 -30.95075481 106.99065232 -30.93164062 100.37207031 C-30.90985848 92.7419969 -30.91694272 85.1123509 -30.93894625 77.48228776 C-30.95714918 70.90441229 -30.95963531 64.32666481 -30.94919157 57.74877226 C-30.94298572 53.83169469 -30.94204049 49.91481749 -30.95533752 45.99775314 C-30.96696782 42.3153608 -30.95874119 38.63351523 -30.9357605 34.95118141 C-30.9280266 32.97082375 -30.93976643 30.99041935 -30.95227051 29.01008606 C-30.86935375 20.19133313 -29.50593584 12.62050612 -24.09765625 5.44921875 C-17.47287779 -1.02149509 -8.96483667 -4.37344544 0 0 Z " fill="#4C5927" transform="translate(552.41015625,585.17578125)"/>
<path d="M0 0 C2.93793682 0.52818383 5.88567959 0.9592929 8.84130859 1.37597656 C9.94603516 1.53582031 11.05076172 1.69566406 12.18896484 1.86035156 C15.27944795 2.26870368 18.36326783 2.62395877 21.46240234 2.95410156 C36.38933609 4.62106878 45.42951279 8.16471878 57.11523438 17.71166992 C60.81918946 20.70799928 64.61972212 23.44359361 68.59521484 26.07128906 C70.0477063 27.03240601 70.0477063 27.03240601 71.52954102 28.01293945 C73.43604872 29.26297073 75.35118677 30.49997325 77.27612305 31.72143555 C83.10957457 35.5552964 87.18065794 39.5673933 91.3671875 45.14819336 C93.34583193 47.70485301 95.46938771 49.61647093 98.09130859 51.50097656 C98.85443359 52.06042969 99.61755859 52.61988281 100.40380859 53.19628906 C100.96068359 53.58558594 101.51755859 53.97488281 102.09130859 54.37597656 C100.86968923 57.6336282 99.50896715 60.47610264 97.59130859 63.37597656 C95.71954543 66.2912891 94.22356592 69.08213708 93.09130859 72.37597656 C87.85944227 71.91480901 84.4128117 69.96413699 80.21630859 67.00097656 C79.24455688 66.33485352 79.24455688 66.33485352 78.25317383 65.65527344 C76.19178691 64.23926129 74.14090196 62.80899403 72.09130859 61.37597656 C69.44809251 59.53884766 66.80179962 57.70621525 64.15380859 55.87597656 C63.50234863 55.42456299 62.85088867 54.97314941 62.1796875 54.50805664 C54.97028194 49.54529071 47.5425078 44.9664475 40.09130859 40.37597656 C40.09130859 49.28597656 40.09130859 58.19597656 40.09130859 67.37597656 C38.27630859 66.50972656 36.46130859 65.64347656 34.59130859 64.75097656 C32.09627171 63.61246459 29.59958212 62.48440057 27.09130859 61.37597656 C26.16874268 60.96774658 26.16874268 60.96774658 25.22753906 60.55126953 C6.52775582 52.46129238 -12.77431316 51.96127826 -32.90869141 51.37597656 C-32.90869141 43.78597656 -32.90869141 36.19597656 -32.90869141 28.37597656 C-47.77550585 32.46472008 -47.77550585 32.46472008 -62.35791016 37.43066406 C-65.455164 38.5784978 -68.57612501 39.61644908 -71.72119141 40.62597656 C-72.75888672 40.96113281 -73.79658203 41.29628906 -74.86572266 41.64160156 C-79.0959565 42.66250524 -82.48306417 43.18017654 -86.34619141 41.00097656 C-91.2282997 35.99979246 -97.90869141 28.68267037 -97.90869141 21.37597656 C-78.82205712 13.10823676 -78.82205712 13.10823676 -71.08056641 11.01269531 C-68.67273081 10.30680106 -66.41287787 9.40130326 -64.09619141 8.43847656 C-59.12086698 6.38242767 -54.04002237 4.85657012 -48.88525391 3.31738281 C-46.52948231 2.57231594 -44.33968282 1.77027974 -42.09619141 0.75097656 C-28.38568267 -5.16336054 -14.17757581 -2.62283602 0 0 Z " fill="#AD6C35" transform="translate(995.90869140625,525.6240234375)"/>
<path d="M0 0 C2.45819321 0.83371286 4.92707359 1.63133629 7.39697266 2.4296875 C22.09141088 7.22223718 22.09141088 7.22223718 26.87744141 9.3125 C29.78232011 10.57457109 32.63825118 11.58250377 35.65869141 12.5234375 C42.67540949 14.80898445 49.35605753 17.71975383 56.09619141 20.7109375 C54.91156793 28.64094641 49.32653171 35.85127206 43.09619141 40.7109375 C36.76656284 41.26074237 31.55735037 39.99435113 25.53369141 38.1484375 C24.64270752 37.88466309 23.75172363 37.62088867 22.83374023 37.34912109 C19.91745186 36.48179524 17.00667515 35.59753444 14.09619141 34.7109375 C11.93479606 34.05838508 9.77333673 33.40604456 7.61181641 32.75390625 C2.1014561 31.08914621 -3.40037574 29.39910709 -8.90380859 27.7109375 C-8.90380859 35.3009375 -8.90380859 42.8909375 -8.90380859 50.7109375 C-10.66724609 50.74832031 -12.43068359 50.78570313 -14.24755859 50.82421875 C-35.09239476 51.36067217 -60.0656373 52.05056011 -77.27490234 65.609375 C-78.90380859 66.7109375 -78.90380859 66.7109375 -81.90380859 66.7109375 C-81.90380859 57.8009375 -81.90380859 48.8909375 -81.90380859 39.7109375 C-88.96810859 43.70018926 -95.62367749 47.83770964 -102.13037109 52.67578125 C-106.93581335 56.20202831 -111.90454876 59.46766768 -116.90380859 62.7109375 C-117.46455078 63.07815918 -118.02529297 63.44538086 -118.60302734 63.82373047 C-120.32099962 64.94379048 -122.0481702 66.04807184 -123.77880859 67.1484375 C-124.80748047 67.80714844 -125.83615234 68.46585938 -126.89599609 69.14453125 C-129.98118319 70.75123258 -132.46442654 71.34646567 -135.90380859 71.7109375 C-136.26732422 70.84082031 -136.26732422 70.84082031 -136.63818359 69.953125 C-138.2478835 66.20128598 -139.78494532 62.69390898 -142.21630859 59.3984375 C-143.90380859 56.7109375 -143.90380859 56.7109375 -143.74755859 54.7578125 C-142.6692776 52.14198268 -141.28897133 51.03890682 -139.09130859 49.2734375 C-135.09273758 45.93060363 -132.09972763 42.40171959 -129.09130859 38.1484375 C-126.9009874 35.70779388 -124.82325458 34.50396039 -121.98852539 32.93139648 C-117.90361425 30.53996062 -114.08077938 27.75151521 -110.21630859 25.0234375 C-109.33289795 24.4042041 -108.4494873 23.7849707 -107.53930664 23.14697266 C-102.68030697 19.72614436 -97.91401637 16.22423952 -93.21630859 12.5859375 C-80.56072178 3.01881086 -66.05712808 2.25981045 -50.78076172 0.4609375 C-43.46243889 -0.40561691 -36.23415962 -1.35365422 -29.01904297 -2.88769531 C-19.02399119 -4.78426331 -9.49869462 -3.23020421 0 0 Z " fill="#AF6D36" transform="translate(709.90380859375,526.2890625)"/>
<path d="M0 0 C2.5625 0.3125 2.5625 0.3125 4.4375 1.3125 C6.25731069 4.547719 5.27673635 7.81961096 4.5625 11.3125 C3.58973618 14.56165419 2.40921079 17.7121826 1.1875 20.875 C0.88328125 21.68646484 0.5790625 22.49792969 0.265625 23.33398438 C-10.87148088 52.81875828 -28.21333902 78.07053838 -46.875 103.20654297 C-48.96754491 106.02690115 -51.05035863 108.85393652 -53.125 111.6875 C-53.70636719 112.47898437 -54.28773438 113.27046875 -54.88671875 114.0859375 C-58.33200916 118.60523989 -58.33200916 118.60523989 -59.3125 123.9375 C-57.23035397 129.58903923 -51.80632887 131.40285318 -46.6953125 133.890625 C-38.96148191 137.26606185 -30.70171948 138.78872851 -22.4375 140.3125 C-22.4375 141.3025 -22.4375 142.2925 -22.4375 143.3125 C-29.630561 148.6945421 -38.13855004 152.03934771 -46.4375 155.3125 C-57.97785402 159.97647727 -68.46213192 165.75979197 -77.44921875 174.4296875 C-79.4375 176.3125 -79.4375 176.3125 -82.4375 178.3125 C-82.79537857 147.69399986 -77.32548915 122.8444002 -58.4375 98.3125 C-56.95636582 96.35565432 -55.47714683 94.39735732 -54 92.4375 C-53.26910156 91.468125 -52.53820312 90.49875 -51.78515625 89.5 C-34.05707223 65.42992253 -18.02345021 39.90529243 -8.203125 11.515625 C-4.39714979 0.56373715 -4.39714979 0.56373715 0 0 Z " fill="#F7F7F3" transform="translate(948.4375,228.6875)"/>
<path d="M0 0 C6.53266815 4.05177096 12.51982981 9.87362987 14.35546875 17.4609375 C15.51689686 27.82910302 14.36883971 35.81504637 8.35546875 44.4609375 C3.24716274 50.7510158 -4.37810579 53.76962206 -12.29296875 54.80859375 C-20.4584291 55.09752542 -27.27907403 52.58097918 -33.64453125 47.4609375 C-41.0790724 39.1357056 -43.3075079 32.27108184 -43.0546875 21.125 C-42.47108873 15.91151762 -40.8912864 12.52350168 -37.64453125 8.4609375 C-37.13664063 7.81511719 -36.62875 7.16929687 -36.10546875 6.50390625 C-27.02442583 -3.7176468 -12.24039494 -5.63098103 0 0 Z " fill="#B07039" transform="translate(675.64453125,464.5390625)"/>
<path d="M0 0 C6.94236246 4.03487733 12.40219818 9.34621057 14.859375 17.15234375 C16.70787532 26.59834996 15.47187601 34.2917249 10.28515625 42.328125 C9.70765625 43.25625 9.13015625 44.184375 8.53515625 45.140625 C2.58736046 50.92320424 -5.64200354 54.59458263 -13.90234375 54.765625 C-21.35212765 54.63078728 -26.93028124 52.69581346 -32.5234375 47.71875 C-39.4027732 40.23897353 -42.04014401 32.14693691 -41.93359375 22.14453125 C-41.38772699 15.11649673 -38.16711866 8.41816978 -32.890625 3.6953125 C-23.23638087 -3.91774859 -11.26174232 -5.20054442 0 0 Z " fill="#AF6E37" transform="translate(1015.71484375,464.671875)"/>
<path d="M0 0 C6.94388626 7.42834344 9.54171011 13.50181435 9.32763672 23.61181641 C8.83573442 32.01156243 6.05045797 37.93046401 -0.0625 43.75 C-7.32867485 49.47363494 -13.78004329 51.65344943 -23.09765625 51.31640625 C-31.02287775 50.22825312 -36.92163682 46.31808346 -41.83984375 40.09765625 C-46.89653842 32.4656688 -48.47680673 24.96139375 -47.3125 15.875 C-45.36494946 7.79669863 -41.25715709 2.26798646 -34.4453125 -2.40625 C-23.26590211 -9.1234923 -10.59628956 -6.79761972 0 0 Z " fill="#4B5826" transform="translate(565.3125,523.125)"/>
<path d="M0 0 C2.37514326 2.13622352 4.22866476 4.34923424 6 7 C6.598125 7.86625 7.19625 8.7325 7.8125 9.625 C10.96471371 15.92942743 10.91580363 23.84794436 9.421875 30.62109375 C6.55880619 38.96303514 0.55077981 45.46816806 -7.25 49.5625 C-15.4253787 52.61938073 -23.55777406 52.07813858 -31.4375 48.5 C-39.01116012 44.25355468 -43.34681272 38.25123536 -46 30 C-47.25269348 22.53592044 -47.27663189 14.09138851 -43.5625 7.375 C-39.38905649 1.6069861 -34.20774847 -2.60795821 -27.6875 -5.4375 C-16.94924792 -7.07553845 -9.18688581 -6.20625175 0 0 Z " fill="#B16F38" transform="translate(1136,523)"/>
<path d="M0 0 C6.09817794 4.41733562 11.39397001 10.32452043 13.32421875 17.68359375 C14.47863432 28.41441118 12.70591028 35.57521869 6.48046875 44.25390625 C1.23964798 50.15932386 -6.00741704 52.92369517 -13.77856445 53.40087891 C-21.56730455 53.5231053 -26.89694204 52.05731846 -32.67578125 46.68359375 C-33.33191406 46.15378906 -33.98804688 45.62398437 -34.6640625 45.078125 C-40.37151298 40.10330792 -42.14775852 34.5324785 -42.953125 27.13671875 C-43.33611064 17.27100878 -40.40804681 10.8494843 -33.80859375 3.62890625 C-24.57806685 -4.79014576 -10.81078381 -6.14526036 0 0 Z " fill="#B06E37" transform="translate(689.67578125,621.31640625)"/>
<path d="M0 0 C6.16366134 3.56122655 11.06730302 7.84162372 13.66015625 14.6015625 C15.54697875 22.80924039 15.60993955 31.87140725 11.53515625 39.3984375 C7.07295899 46.25906578 2.35469105 50.97187096 -5.71484375 53.3203125 C-12.69323431 54.17523485 -20.17158166 54.8773436 -26.40234375 51.0703125 C-27.52871528 50.18107182 -28.63619887 49.26687841 -29.71484375 48.3203125 C-31.04515625 47.4540625 -31.04515625 47.4540625 -32.40234375 46.5703125 C-38.73850697 40.40539693 -40.84892237 33.17210118 -41.02734375 24.5703125 C-40.97648075 18.44132111 -40.27529123 14.30493897 -36.71484375 9.3203125 C-35.97234375 8.2684375 -35.22984375 7.2165625 -34.46484375 6.1328125 C-25.07003558 -3.47551404 -12.32897459 -5.73347436 0 0 Z " fill="#AF6E37" transform="translate(1001.71484375,620.6796875)"/>
<path d="M0 0 C6.55048775 5.13140461 11.28215889 10.84917523 12.4453125 19.1953125 C12.89119527 28.01603687 11.15866834 34.78446391 6 42 C3.56178312 44.53533663 1.07040754 46.30171597 -2 48 C-2.72445312 48.40992188 -3.44890625 48.81984375 -4.1953125 49.2421875 C-11.31402638 52.83875026 -17.4122097 52.80913065 -25.0625 50.9375 C-33.3139603 48.18274229 -38.13579589 42.65948107 -42.08984375 35.11328125 C-45.31798766 27.61789131 -44.99216376 18.69514028 -42.10546875 11.1328125 C-38.67301068 4.5104729 -33.66321053 0.14302384 -27 -3 C-18.14787163 -5.80538544 -7.90549208 -4.81086355 0 0 Z " fill="#AF6D37" transform="translate(848,676)"/>
<path d="M0 0 C1.51898784 0.09682724 3.03723767 0.20570477 4.5546875 0.32421875 C6.18616732 0.43923684 7.81767851 0.55381085 9.44921875 0.66796875 C10.27760254 0.72855469 11.10598633 0.78914063 11.95947266 0.8515625 C14.30853541 1.00386386 16.6511054 1.09824094 19.00390625 1.16796875 C19.71853027 1.19463623 20.4331543 1.22130371 21.16943359 1.2487793 C23.13739733 1.32040483 25.10581192 1.3793106 27.07421875 1.4375 C31.09096209 2.12488215 32.47930499 3.24004249 35.4296875 6.01171875 C37.18725586 8.8581543 37.18725586 8.8581543 38.76953125 12.1484375 C39.20103989 13.03622894 39.20103989 13.03622894 39.64126587 13.94195557 C40.56452373 15.85444728 41.46733482 17.77561522 42.3671875 19.69921875 C42.67816376 20.35576447 42.98914001 21.01231018 43.30953979 21.68875122 C54.10607589 44.50109611 61.76798016 68.13650555 61.4921875 93.63671875 C61.48767578 94.45011719 61.48316406 95.26351562 61.47851562 96.1015625 C61.46692689 98.07164773 61.44900147 100.04169411 61.4296875 102.01171875 C60.5015625 101.18671875 59.5734375 100.36171875 58.6171875 99.51171875 C47.35348289 89.97227906 35.65825452 83.91348546 22.16796875 78.19921875 C6.1283918 71.39055123 6.1283918 71.39055123 -0.5703125 66.01171875 C-0.5703125 65.35171875 -0.5703125 64.69171875 -0.5703125 64.01171875 C0.11893311 63.86661865 0.80817871 63.72151855 1.51831055 63.57202148 C22.05338802 59.81552095 22.05338802 59.81552095 39.4296875 49.01171875 C39.39599133 40.78142929 36.24495926 34.37029274 32.6796875 27.07421875 C32.15375 25.93919922 31.6278125 24.80417969 31.0859375 23.63476562 C30.30476562 22.01344727 30.30476562 22.01344727 29.5078125 20.359375 C29.03762695 19.37976807 28.56744141 18.40016113 28.08300781 17.39086914 C26.06832302 14.49171035 24.81526323 13.89865989 21.4296875 13.01171875 C18.56830344 12.59366701 18.56830344 12.59366701 15.54296875 12.44921875 C14.44017578 12.37445313 13.33738281 12.2996875 12.20117188 12.22265625 C9.88350685 12.08131925 7.56579787 11.94070138 5.24804688 11.80078125 C4.14912109 11.72601563 3.05019531 11.65125 1.91796875 11.57421875 C0.91290283 11.51363281 -0.09216309 11.45304687 -1.12768555 11.390625 C-3.5703125 11.01171875 -3.5703125 11.01171875 -5.5703125 9.01171875 C-5.8203125 5.51171875 -5.8203125 5.51171875 -5.5703125 2.01171875 C-3.5703125 0.01171875 -3.5703125 0.01171875 0 0 Z " fill="#F6F7F3" transform="translate(736.5703125,304.98828125)"/>
<path d="M0 0 C3.26882992 3.50785503 5.11330061 7.09362364 6.9375 11.5 C7.19345947 12.11528564 7.44941895 12.73057129 7.71313477 13.36450195 C10.26021314 19.53107117 12.66256503 25.75121252 15 32 C15.29084473 32.77166504 15.58168945 33.54333008 15.88134766 34.33837891 C16.84228411 36.89051162 17.79697583 39.44490305 18.75 42 C19.05607178 42.81364014 19.36214355 43.62728027 19.67749023 44.46557617 C21.0948703 48.2918257 22.37273055 51.95126083 23 56 C23.23976563 57.09828125 23.23976563 57.09828125 23.484375 58.21875 C24.0005147 62.65147919 23.58290629 65.17608438 20.96875 68.87109375 C19.59835729 70.46180185 18.18605367 72.00710473 16.765625 73.55322266 C5.96441149 85.42842047 -2.91852968 100.75558904 -8 116 C-8.66 116 -9.32 116 -10 116 C-10.29656494 115.34104736 -10.59312988 114.68209473 -10.89868164 114.00317383 C-18.36562819 97.34457425 -18.36562819 97.34457425 -26.85546875 81.1953125 C-28 79 -28 79 -28 77 C-26.84242188 76.96261719 -25.68484375 76.92523438 -24.4921875 76.88671875 C-22.95309439 76.82102575 -21.4140333 76.75457958 -19.875 76.6875 C-19.11445312 76.66494141 -18.35390625 76.64238281 -17.5703125 76.61914062 C-12.15295034 76.36228294 -7.6133586 75.70932673 -3.65039062 71.60083008 C-2.29955832 69.96457192 -1.04786101 68.28738004 0.1875 66.5625 C0.61224609 65.98951172 1.03699219 65.41652344 1.47460938 64.82617188 C2.65959356 63.22469247 3.83027106 61.61265557 5 60 C5.58523438 59.278125 6.17046875 58.55625 6.7734375 57.8125 C8.86821475 54.71703298 8.53654216 51.54110306 8 48 C6.12547431 41.77256209 3.52095989 35.7741849 0.984375 29.79296875 C0.72157242 29.17282394 0.45876984 28.55267914 0.18800354 27.91374207 C-0.89953005 25.35268279 -1.98843355 22.79239135 -3.09277344 20.23852539 C-3.91018997 18.34401711 -4.7138794 16.44415194 -5.515625 14.54296875 C-6.23153809 12.8727063 -6.23153809 12.8727063 -6.96191406 11.16870117 C-8.04871171 7.85131015 -8.43690885 5.46197365 -8 2 C-4.75846834 -0.1610211 -3.76307099 -0.64247553 0 0 Z " fill="#F7F8F4" transform="translate(841,249)"/>
<path d="M0 0 C2.875 0.3125 2.875 0.3125 6 1 C8.18212875 4.27319312 8.14970548 5.20980782 7.47265625 8.9296875 C3.17020327 27.77514269 -5.94722571 45.02603805 -18 60 C-18.79664063 61.02673828 -18.79664063 61.02673828 -19.609375 62.07421875 C-20.68336078 63.4293361 -21.83160422 64.72538642 -23 66 C-23.66 66 -24.32 66 -25 66 C-25.268125 65.33097656 -25.53625 64.66195312 -25.8125 63.97265625 C-28.74437096 56.78764353 -31.93907197 49.77314173 -35.3203125 42.78930664 C-35.65289063 42.09571045 -35.98546875 41.40211426 -36.328125 40.6875 C-36.6262207 40.07261719 -36.92431641 39.45773437 -37.23144531 38.82421875 C-38.03926264 36.90680735 -38.54673911 35.02792279 -39 33 C-38.39003174 32.98541748 -37.78006348 32.97083496 -37.15161133 32.95581055 C-34.37128936 32.88105225 -31.59213176 32.78448518 -28.8125 32.6875 C-27.85279297 32.66494141 -26.89308594 32.64238281 -25.90429688 32.61914062 C-18.92746775 32.42318719 -18.92746775 32.42318719 -13 29 C-11.77336746 27.32417766 -11.77336746 27.32417766 -11.0625 25.3125 C-10.74539063 24.53132813 -10.42828125 23.75015625 -10.1015625 22.9453125 C-9.23558234 20.62989037 -8.37703011 18.31218064 -7.5234375 15.9921875 C-7.26167725 15.28408936 -6.99991699 14.57599121 -6.73022461 13.84643555 C-6.20977532 12.42902467 -5.69729203 11.00865825 -5.19360352 9.58520508 C-3.87759856 5.95373678 -2.53996332 2.93188645 0 0 Z " fill="#F7F8F4" transform="translate(908,223)"/>
<path d="M0 0 C2.01074978 3.34911079 2.25111256 5.89511009 2.25396729 9.77336121 C2.25960693 10.95224915 2.26524658 12.13113708 2.27105713 13.3457489 C2.26700867 14.63568253 2.26296021 15.92561615 2.25878906 17.25463867 C2.26149985 18.6297728 2.26506128 20.00490547 2.26940918 21.3800354 C2.27852933 25.11379102 2.27498935 28.84743613 2.26865101 32.58119369 C2.26358399 36.49409897 2.26828489 40.40699485 2.27142334 44.31990051 C2.27506309 50.89630834 2.27026591 57.47267126 2.26074219 64.04907227 C2.24988022 71.63685477 2.2533667 79.2245296 2.264395 86.81230944 C2.27349468 93.33562836 2.27473939 99.85891499 2.26951766 106.38223821 C2.26640975 110.27419853 2.26595558 114.1661084 2.27259064 118.05806541 C2.27840172 121.7229613 2.27429892 125.38771971 2.26280212 129.05260086 C2.25892857 131.02726812 2.26481064 133.0019471 2.27105713 134.97660828 C2.22417046 144.89481309 1.37806132 152.57437059 -4 161 C-4.61896133 159.20864868 -4.61896133 159.20864868 -5 157 C-4.37188416 155.89833496 -3.74376831 154.79666992 -3.09661865 153.66162109 C0.13675529 147.60480273 -0.42767963 141.11072466 -0.45410156 134.4140625 C-0.44535609 132.94490978 -0.43486692 131.47576656 -0.42277527 130.00663757 C-0.39501349 126.03815318 -0.39150839 122.0699811 -0.39249516 118.10141373 C-0.38935756 113.94668912 -0.36372179 109.79210342 -0.34051514 105.63745117 C-0.30001626 97.77891625 -0.27962884 89.92046418 -0.26654124 82.06184101 C-0.25065045 73.11132842 -0.21222609 64.16095641 -0.17194796 55.21052551 C-0.08963271 36.80706151 -0.03548834 18.4036109 0 0 Z " fill="#BA8B62" transform="translate(1140,600)"/>
<path d="M0 0 C0.66 0.33 1.32 0.66 2 1 C1.0479279 2.00596297 0.08812654 3.00461563 -0.875 4 C-1.40867187 4.556875 -1.94234375 5.11375 -2.4921875 5.6875 C-4 7 -4 7 -6 7 C-6 38.68 -6 70.36 -6 103 C-6.66 103 -7.32 103 -8 103 C-8.11587934 90.58687932 -8.20470844 78.17388745 -8.25906086 65.76033592 C-8.28514816 59.99611676 -8.32053125 54.23226781 -8.37719727 48.46826172 C-8.43154666 42.90504953 -8.46142706 37.34219331 -8.47438622 31.77873611 C-8.48362073 29.65683005 -8.50165376 27.53494335 -8.52865028 25.41318893 C-8.56497882 22.43958272 -8.56994366 19.46744497 -8.56762695 16.49365234 C-8.58560333 15.6175531 -8.60357971 14.74145386 -8.62210083 13.83880615 C-8.58658329 9.62213315 -8.31730541 6.83998544 -5.65202332 3.46914673 C-3 1 -3 1 0 0 Z " fill="#E8D4BF" transform="translate(1032,704)"/>
<path d="M0 0 C0 30.36 0 60.72 0 92 C-0.66 92 -1.32 92 -2 92 C-2.33 62.96 -2.66 33.92 -3 4 C-3.66 3.67 -4.32 3.34 -5 3 C-2.25 0 -2.25 0 0 0 Z " fill="#F3E2D3" transform="translate(957,729)"/>
<path d="M0 0 C0.99 0.33 1.98 0.66 3 1 C3.33 12.22 3.66 23.44 4 35 C3.01 35 2.02 35 1 35 C1 36.65 1 38.3 1 40 C0.67 40 0.34 40 0 40 C0 26.8 0 13.6 0 0 Z " fill="#F3E0CA" transform="translate(990,784)"/>
<path d="M0 0 C0.99 0.33 1.98 0.66 3 1 C3 13.54 3 26.08 3 39 C2.67 39 2.34 39 2 39 C1.67 37.02 1.34 35.04 1 33 C0.34 33.66 -0.32 34.32 -1 35 C-0.67 23.45 -0.34 11.9 0 0 Z " fill="#F1DCC4" transform="translate(671,784)"/>
<path d="M0 0 C0.88076706 0.00141495 1.76153412 0.0028299 2.66899109 0.00428772 C5.47076878 0.00986688 8.27246537 0.02241554 11.07421875 0.03515625 C12.97851447 0.04017394 14.88281144 0.04473638 16.78710938 0.04882812 C21.44534356 0.05982948 26.10351742 0.07707976 30.76171875 0.09765625 C30.76171875 0.42765625 30.76171875 0.75765625 30.76171875 1.09765625 C29.47483154 1.14776855 28.18794434 1.19788086 26.86206055 1.24951172 C22.09260463 1.4376999 17.32372861 1.6381304 12.55493164 1.84228516 C10.48996536 1.92896796 8.42485645 2.01231943 6.35961914 2.09228516 C3.39295446 2.20773067 0.42700715 2.33510443 -2.5390625 2.46484375 C-3.46415115 2.49826874 -4.38923981 2.53169373 -5.34236145 2.56613159 C-6.20302719 2.60602203 -7.06369293 2.64591248 -7.95043945 2.68701172 C-9.08628227 2.73364456 -9.08628227 2.73364456 -10.24507141 2.78121948 C-12.55190376 3.00529752 -12.55190376 3.00529752 -15.23828125 5.09765625 C-17.42578125 4.72265625 -17.42578125 4.72265625 -19.23828125 4.09765625 C-12.91155609 -0.059906 -7.34073142 -0.04461855 0 0 Z " fill="#B48863" transform="translate(976.23828125,681.90234375)"/>
<path d="M0 0 C0.66 0.33 1.32 0.66 2 1 C1.0479279 2.00596297 0.08812654 3.00461563 -0.875 4 C-1.40867187 4.556875 -1.94234375 5.11375 -2.4921875 5.6875 C-4 7 -4 7 -6 7 C-6 17.56 -6 28.12 -6 39 C-6.33 39 -6.66 39 -7 39 C-7.09915614 34.39190905 -7.17160182 29.78444408 -7.21972656 25.17553711 C-7.23979558 23.60902077 -7.26705751 22.04257891 -7.30175781 20.47631836 C-7.35048754 18.21970206 -7.3730147 15.96407917 -7.390625 13.70703125 C-7.41127014 13.01100296 -7.43191528 12.31497467 -7.45318604 11.59785461 C-7.45481088 8.04667303 -7.07116649 6.11309646 -5.16308594 3.08081055 C-3 1 -3 1 0 0 Z " fill="#FEF9EF" transform="translate(1032,704)"/>
<path d="M0 0 C0.33 0 0.66 0 1 0 C1.08701039 3.60401481 1.14039388 7.20776012 1.1875 10.8125 C1.21263672 11.83666016 1.23777344 12.86082031 1.26367188 13.91601562 C1.27333984 14.89892578 1.28300781 15.88183594 1.29296875 16.89453125 C1.3086792 17.80050049 1.32438965 18.70646973 1.34057617 19.63989258 C0.93249158 22.46781642 0.22183918 23.27111879 -2 25 C-4.12109375 26.203125 -4.12109375 26.203125 -6.4375 27.25 C-7.58025391 27.78367188 -7.58025391 27.78367188 -8.74609375 28.328125 C-11.27972334 29.08338373 -12.54185126 28.87351072 -15 28 C-10.71361582 24.50479421 -6.14032038 22.96143804 -1 21 C-0.67 14.07 -0.34 7.14 0 0 Z " fill="#8C9275" transform="translate(623,212)"/>
<path d="M0 0 C4.875 4.75 4.875 4.75 6 7 C5.38125 6.835 4.7625 6.67 4.125 6.5 C-1.70738277 5.56681876 -7.00757408 4.72484741 -12.125 8 C-12.74375 8.66 -13.3625 9.32 -14 10 C-12.53584643 6.13995876 -10.7141657 4.73327733 -7 3 C-3.1875 2.3125 -3.1875 2.3125 0 2 C0 1.34 0 0.68 0 0 Z " fill="#93713D" transform="translate(586,647)"/>
<path d="M0 0 C0.66 0.33 1.32 0.66 2 1 C-1.86364295 5.48717034 -5.74790208 9.87675353 -10 14 C-10.99 13.67 -11.98 13.34 -13 13 C-8.96476648 8.18876004 -4.95532767 3.86757281 0 0 Z " fill="#EBEEE2" transform="translate(905,414)"/>
<path d="M0 0 C-1.51900022 3.6241364 -3.68070454 5.857624 -6.5 8.5625 C-9.02809153 10.9961985 -11.04672934 13.07009401 -13 16 C-13.66 15.67 -14.32 15.34 -15 15 C-4.36363636 0 -4.36363636 0 0 0 Z " fill="#E3E8D9" transform="translate(739,664)"/>
<path d="M0 0 C-8.25 2.64 -16.5 5.28 -25 8 C-25 7.34 -25 6.68 -25 6 C-22.4392555 5.01602415 -19.87658508 4.03770033 -17.3125 3.0625 C-16.2306543 2.64581055 -16.2306543 2.64581055 -15.12695312 2.22070312 C-5.58405172 -1.39601293 -5.58405172 -1.39601293 0 0 Z " fill="#AA774C" transform="translate(664,579)"/>
<path d="M0 0 C0.33 0.99 0.66 1.98 1 3 C-0.28548409 4.33929505 -1.57858155 5.67128643 -2.875 7 C-3.59429688 7.7425 -4.31359375 8.485 -5.0546875 9.25 C-7 11 -7 11 -9 11 C-9 11.66 -9 12.32 -9 13 C-9.66 12.67 -10.32 12.34 -11 12 C-7.72469104 7.36279281 -4.69564393 3.31457218 0 0 Z " fill="#6E7653" transform="translate(582,260)"/>
<path d="M0 0 C0.99 0.33 1.98 0.66 3 1 C2.360625 1.598125 1.72125 2.19625 1.0625 2.8125 C-1.87139517 7.34670163 -1.81430312 11.69835408 -2 17 C-2.99 16.34 -3.98 15.68 -5 15 C-4.744398 13.06043186 -4.46995354 11.12334011 -4.1875 9.1875 C-4.03667969 8.10855469 -3.88585937 7.02960937 -3.73046875 5.91796875 C-2.98387597 2.93559009 -2.37924316 1.85776521 0 0 Z " fill="#5F541F" transform="translate(573,651)"/>
<path d="M0 0 C-0.15339844 0.99128906 -0.30679688 1.98257813 -0.46484375 3.00390625 C-1.03170998 6.97196983 -1.31464548 10.93641991 -1.5625 14.9375 C-1.60568359 15.62134766 -1.64886719 16.30519531 -1.69335938 17.00976562 C-1.79803995 18.67302365 -1.89937594 20.33649163 -2 22 C-2.33 22 -2.66 22 -3 22 C-3.02697137 19.39576408 -3.04682489 16.79180756 -3.0625 14.1875 C-3.07087891 13.44951172 -3.07925781 12.71152344 -3.08789062 11.95117188 C-3.10259828 8.70077932 -3.03531702 6.10595105 -2 3 C-4.31 3.33 -6.62 3.66 -9 4 C-3 0 -3 0 0 0 Z " fill="#CACFBB" transform="translate(762,653)"/>
<path d="M0 0 C0.66 0.33 1.32 0.66 2 1 C1.33613281 1.65226563 0.67226563 2.30453125 -0.01171875 2.9765625 C-4.57350463 7.49173159 -9.02110378 11.96006479 -13 17 C-13.66 16.67 -14.32 16.34 -15 16 C-11.1366276 11.51314387 -7.24875802 7.13073696 -3 3 C-2.401875 2.401875 -1.80375 1.80375 -1.1875 1.1875 C-0.795625 0.795625 -0.40375 0.40375 0 0 Z " fill="#5F6741" transform="translate(732,651)"/>
<path d="M0 0 C0.66 0.33 1.32 0.66 2 1 C0.5484451 2.67257355 -0.91144409 4.33791758 -2.375 6 C-3.18710937 6.928125 -3.99921875 7.85625 -4.8359375 8.8125 C-5.55007813 9.534375 -6.26421875 10.25625 -7 11 C-7.66 11 -8.32 11 -9 11 C-9.33 12.32 -9.66 13.64 -10 15 C-10.66 15 -11.32 15 -12 15 C-10.57641609 10.45925821 -8.27867927 7.96026853 -4.875 4.6875 C-3.96492187 3.80449219 -3.05484375 2.92148437 -2.1171875 2.01171875 C-1.41851563 1.34785156 -0.71984375 0.68398438 0 0 Z " fill="#DFE4D4" transform="translate(798,642)"/>
<path d="M0 0 C0.33 0.99 0.66 1.98 1 3 C-0.375 4.5 -0.375 4.5 -2 6 C-2.66 6 -3.32 6 -4 6 C-4.268125 6.61875 -4.53625 7.2375 -4.8125 7.875 C-6 10 -6 10 -9 12 C-9.66 12.99 -10.32 13.98 -11 15 C-11.33 13.68 -11.66 12.36 -12 11 C-11.30132813 10.37351562 -10.60265625 9.74703125 -9.8828125 9.1015625 C-8.97273437 8.28429687 -8.06265625 7.46703125 -7.125 6.625 C-5.76761719 5.40683594 -5.76761719 5.40683594 -4.3828125 4.1640625 C-2.89103817 2.80923795 -1.42494565 1.42494565 0 0 Z " fill="#AD7A54" transform="translate(578,569)"/>
<path d="M0 0 C0.66 0.33 1.32 0.66 2 1 C0.92807816 2.3218362 -0.15802695 3.63217927 -1.25 4.9375 C-1.85328125 5.66839844 -2.4565625 6.39929688 -3.078125 7.15234375 C-5.10741134 9.10326334 -6.254407 9.61731779 -9 10 C-6.68116787 5.49115974 -3.93548431 3.06093224 0 0 Z " fill="#B27F53" transform="translate(661,621)"/>
<path d="M0 0 C0.33 0 0.66 0 1 0 C1.6727248 8.70057407 0.61280192 14.55361975 -4 22 C-4.79914743 19.70371561 -5.20778015 18.50085952 -4.2578125 16.2109375 C-3.88398437 15.60507812 -3.51015625 14.99921875 -3.125 14.375 C-0.57165824 9.70854782 -0.2150994 5.24842524 0 0 Z " fill="#AE7A4F" transform="translate(1140,739)"/>
<path d="M0 0 C0.66 0.33 1.32 0.66 2 1 C0.73755365 2.65227538 -0.53525235 4.29663951 -1.8125 5.9375 C-2.87404297 7.31228516 -2.87404297 7.31228516 -3.95703125 8.71484375 C-6 11 -6 11 -9 12 C-7.54718935 6.67302761 -3.91888622 3.63597198 0 0 Z " fill="#B47F52" transform="translate(955,687)"/>
<path d="M0 0 C0.33 0 0.66 0 1 0 C1 3.63 1 7.26 1 11 C1.66 11 2.32 11 3 11 C3 10.34 3 9.68 3 9 C4.98 9 6.96 9 9 9 C5.8459821 11.71595986 4.12615036 12.96846241 0 14 C0 9.38 0 4.76 0 0 Z " fill="#B2845B" transform="translate(628,579)"/>
<path d="M0 0 C0.66 0.33 1.32 0.66 2 1 C0.92807816 2.3218362 -0.15802695 3.63217927 -1.25 4.9375 C-1.85328125 5.66839844 -2.4565625 6.39929688 -3.078125 7.15234375 C-5.10741134 9.10326334 -6.254407 9.61731779 -9 10 C-6.43571997 5.82117329 -3.98069267 2.87494471 0 0 Z " fill="#B88356" transform="translate(1102,521)"/>
<path d="M0 0 C6.5705166 -0.24794402 12.56971459 0.67611771 19 2 C18.67 2.66 18.34 3.32 18 4 C11.91766294 3.32418477 5.98685848 2.26361972 0 1 C0 0.67 0 0.34 0 0 Z " fill="#B4845A" transform="translate(739,755)"/>
<path d="M0 0 C1.16917969 0.27714844 2.33835937 0.55429687 3.54296875 0.83984375 C5.09113523 1.20577401 6.63931291 1.57165693 8.1875 1.9375 C8.95642578 2.11990234 9.72535156 2.30230469 10.51757812 2.49023438 C14.33440092 3.39120113 18.14656426 4.26637997 22 5 C22 5.33 22 5.66 22 6 C15.7337866 5.56941029 9.97756061 4.95185653 4 3 C2.66869885 2.65864073 1.33641852 2.32074044 0 2 C0 1.34 0 0.68 0 0 Z " fill="#B07F59" transform="translate(744,728)"/>
<path d="M0 0 C1.12796479 3.38389438 0.80041938 5.55819666 0 9 C-0.34403308 11.33177975 -0.67949202 13.66487041 -1 16 C-1.66 16 -2.32 16 -3 16 C-3.55353075 4.29384966 -3.55353075 4.29384966 0 0 Z " fill="#AA7546" transform="translate(807,689)"/>
<path d="M0 0 C0.66 0.33 1.32 0.66 2 1 C0.33248852 4.94139078 -2.22710649 7.7892812 -5 11 C-5.66 10.67 -6.32 10.34 -7 10 C-5.6062718 5.56541027 -3.39417765 3.12621626 0 0 Z " fill="#B68459" transform="translate(814,677)"/>
<path d="M0 0 C2.5625 0.1875 2.5625 0.1875 4.5625 2.1875 C4.6875 5.3125 4.6875 5.3125 4.5625 8.1875 C2.5625 5.1875 2.5625 5.1875 2.5625 2.1875 C-1.3975 4.1675 -1.3975 4.1675 -5.4375 6.1875 C-3.15091463 0.24237805 -3.15091463 0.24237805 0 0 Z " fill="#F2E2CF" transform="translate(1122.4375,630.8125)"/>
<path d="M0 0 C0 0.66 0 1.32 0 2 C-0.99 2 -1.98 2 -3 2 C-3.25523437 2.59296875 -3.51046875 3.1859375 -3.7734375 3.796875 C-5.11816498 6.21224538 -6.49214367 7.51211706 -8.625 9.25 C-9.25664063 9.77078125 -9.88828125 10.2915625 -10.5390625 10.828125 C-11.02117188 11.21484375 -11.50328125 11.6015625 -12 12 C-11.42541562 8.43442842 -10.14644352 6.78900304 -7.5625 4.3125 C-6.94503906 3.71050781 -6.32757812 3.10851562 -5.69140625 2.48828125 C-3.71351943 0.74792356 -2.65837556 0 0 0 Z " fill="#B38053" transform="translate(649,465)"/>
<path d="M0 0 C0.66 0.33 1.32 0.66 2 1 C-0.64 3.97 -3.28 6.94 -6 10 C-6.99 9.67 -7.98 9.34 -9 9 C-6.31941902 5.42589203 -3.57410797 2.68058098 0 0 Z " fill="#B7865C" transform="translate(987,465)"/>
<path d="M0 0 C0.33 0.99 0.66 1.98 1 3 C-2.63 6.3 -6.26 9.6 -10 13 C-10.66 12.67 -11.32 12.34 -12 12 C-8.04 8.04 -4.08 4.08 0 0 Z " fill="#D2D8C6" transform="translate(1092,383)"/>
<path d="M0 0 C0.66 0.33 1.32 0.66 2 1 C1.0479279 2.00596297 0.08812654 3.00461563 -0.875 4 C-1.40867187 4.556875 -1.94234375 5.11375 -2.4921875 5.6875 C-4 7 -4 7 -6 7 C-6.33 7.99 -6.66 8.98 -7 10 C-6.39053254 4.5147929 -6.39053254 4.5147929 -4.625 2.1875 C-3 1 -3 1 0 0 Z " fill="#F3E2D0" transform="translate(1032,704)"/>
<path d="M0 0 C2.97 0.33 5.94 0.66 9 1 C9.33 1.99 9.66 2.98 10 4 C10.66 4 11.32 4 12 4 C12 4.66 12 5.32 12 6 C7.76570244 4.68938409 3.92592596 3.05643741 0 1 C0 0.67 0 0.34 0 0 Z " fill="#6C7754" transform="translate(965,401)"/>
<path d="M0 0 C0.66 0.33 1.32 0.66 2 1 C0.38405168 3.04119788 -1.2856382 5.04072937 -3 7 C-3.66 7 -4.32 7 -5 7 C-5.66 8.32 -6.32 9.64 -7 11 C-7.66 10.67 -8.32 10.34 -9 10 C-6.03 6.7 -3.06 3.4 0 0 Z " fill="#757D58" transform="translate(654,148)"/>
<path d="M0 0 C0.66 0.33 1.32 0.66 2 1 C-1.44615385 5.8 -1.44615385 5.8 -4.25 6.8125 C-5.11625 6.9053125 -5.11625 6.9053125 -6 7 C-6 7.66 -6 8.32 -6 9 C-6.66 8.67 -7.32 8.34 -8 8 C-5.58443874 4.80800833 -3.31996462 2.25283313 0 0 Z " fill="#B38156" transform="translate(974,621)"/>
<path d="M0 0 C0.66 0.33 1.32 0.66 2 1 C1.04882866 2.1725131 0.08882991 3.33787015 -0.875 4.5 C-1.40867187 5.1496875 -1.94234375 5.799375 -2.4921875 6.46875 C-2.98976563 6.9740625 -3.48734375 7.479375 -4 8 C-4.66 8 -5.32 8 -6 8 C-6 8.66 -6 9.32 -6 10 C-6.66 9.67 -7.32 9.34 -8 9 C-6.85459775 7.68712379 -5.70866567 6.37470979 -4.5625 5.0625 C-3.92441406 4.33160156 -3.28632812 3.60070312 -2.62890625 2.84765625 C-1.77458541 1.87860647 -0.91348825 0.91348825 0 0 Z " fill="#6F7755" transform="translate(774,104)"/>
<path d="M0 0 C0.66 0.33 1.32 0.66 2 1 C-0.97 3.97 -3.94 6.94 -7 10 C-7 6.04435836 -5.59478606 4.89133304 -3 2 C-2.01 1.34 -1.02 0.68 0 0 Z " fill="#6B744F" transform="translate(534,586)"/>
<path d="M0 0 C1.10336858 3.31010574 1.13531135 5.6813976 0 9 C-2.05078125 10.1484375 -2.05078125 10.1484375 -4 11 C-3.52269162 9.5410574 -3.04308958 8.08286504 -2.5625 6.625 C-2.29566406 5.81289063 -2.02882813 5.00078125 -1.75390625 4.1640625 C-1 2 -1 2 0 0 Z " fill="#6B744F" transform="translate(777,550)"/>
<path d="M0 0 C0.33 0.99 0.66 1.98 1 3 C-1.64 5.31 -4.28 7.62 -7 10 C-7.66 9.67 -8.32 9.34 -9 9 C-6.03 6.03 -3.06 3.06 0 0 Z " fill="#BB8C64" transform="translate(931,717)"/>
<path d="M0 0 C0.33 0 0.66 0 1 0 C1.25 2.25 1.25 2.25 1 5 C-1 7.3125 -1 7.3125 -3 9 C-3.99 8.67 -4.98 8.34 -6 8 C-5.02471263 6.66382648 -4.04466681 5.3311249 -3.0625 4 C-2.24458984 2.88625 -2.24458984 2.88625 -1.41015625 1.75 C-0.94480469 1.1725 -0.47945312 0.595 0 0 Z " fill="#AD7C52" transform="translate(1082,640)"/>
<path d="M0 0 C3.34373475 0.55728913 6.03312999 1.35173889 9 3 C7.576875 3.185625 7.576875 3.185625 6.125 3.375 C2.91332809 3.71687177 2.91332809 3.71687177 1 6 C0.67 4.02 0.34 2.04 0 0 Z " fill="#D3DAC4" transform="translate(902,654)"/>
<path d="M0 0 C0.33 0 0.66 0 1 0 C1.49230769 7.38461538 1.49230769 7.38461538 -1 10.5 C-1.66 10.995 -2.32 11.49 -3 12 C-3.66 11.67 -4.32 11.34 -5 11 C-4.360625 10.29875 -3.72125 9.5975 -3.0625 8.875 C-0.83613898 5.77158767 -0.34919057 3.75379861 0 0 Z " fill="#6B7350" transform="translate(864,309)"/>
<path d="M0 0 C0.66 0.33 1.32 0.66 2 1 C-3.14285714 6.57142857 -3.14285714 6.57142857 -7 7 C-5.55609075 3.19333016 -3.65047197 1.73397418 0 0 Z " fill="#BB8D68" transform="translate(587,560)"/>
<path d="M0 0 C-0.99 0.495 -0.99 0.495 -2 1 C-2.33 1.99 -2.66 2.98 -3 4 C-5.475 3.01 -5.475 3.01 -8 2 C-8 1.34 -8 0.68 -8 0 C-4.94736336 -0.98120464 -3.05263664 -0.98120464 0 0 Z " fill="#DDE3CC" transform="translate(744,369)"/>
<path d="M0 0 C-0.61875 0.0825 -1.2375 0.165 -1.875 0.25 C-4.15042479 0.79923543 -4.15042479 0.79923543 -5.125 2.875 C-5.41375 3.57625 -5.7025 4.2775 -6 5 C-6.66 5.99 -7.32 6.98 -8 8 C-8.1875 5.125 -8.1875 5.125 -8 2 C-4.77208445 -0.1519437 -3.71599191 -0.20086443 0 0 Z " fill="#C9CEB7" transform="translate(841,249)"/>
<path d="M0 0 C0.78375 0.04125 1.5675 0.0825 2.375 0.125 C1.1684375 0.929375 1.1684375 0.929375 -0.0625 1.75 C-3.09008424 4.55605369 -3.35010809 6.09325194 -3.625 10.125 C-3.955 10.125 -4.285 10.125 -4.625 10.125 C-4.8203125 4.0703125 -4.8203125 4.0703125 -4.625 2.125 C-2.625 0.125 -2.625 0.125 0 0 Z " fill="#E0E4D2" transform="translate(541.625,630.875)"/>
<path d="M0 0 C0.33 0.99 0.66 1.98 1 3 C-1.97 5.475 -1.97 5.475 -5 8 C-5.66 7.67 -6.32 7.34 -7 7 C-4.69 4.69 -2.38 2.38 0 0 Z " fill="#B98860" transform="translate(578,569)"/>
<path d="M0 0 C-1.90401138 1.90401138 -3.33425686 2.93520439 -6.046875 3.19921875 C-8.03233273 3.1886578 -10.0169914 3.09915043 -12 3 C-12 2.67 -12 2.34 -12 2 C-10.37787941 1.47026689 -8.75218416 0.95146893 -7.125 0.4375 C-6.22007813 0.14746094 -5.31515625 -0.14257812 -4.3828125 -0.44140625 C-2 -1 -2 -1 0 0 Z " fill="#B98961" transform="translate(1037,676)"/>
<path d="M0 0 C0.33 0.99 0.66 1.98 1 3 C0.01 3.33 -0.98 3.66 -2 4 C-3.20882096 6.00016466 -3.20882096 6.00016466 -4 8 C-4.99 8 -5.98 8 -7 8 C-4.69 5.36 -2.38 2.72 0 0 Z " fill="#F2E3D3" transform="translate(1102,660)"/>
<path d="M0 0 C3.3 0 6.6 0 10 0 C9.67 0.66 9.34 1.32 9 2 C5.44307323 2.85056945 3.50729422 3.16909807 0 2 C0 1.34 0 0.68 0 0 Z " fill="#545F37" transform="translate(950,148)"/>
<path d="M0 0 C2.5654594 2.5654594 2.54046087 4.47686668 3 8 C1.02 6.68 -0.96 5.36 -3 4 C-2.34 3.67 -1.68 3.34 -1 3 C-0.67 2.01 -0.34 1.02 0 0 Z " fill="#89693C" transform="translate(571,664)"/>
<path d="M0 0 C1.9375 0.375 1.9375 0.375 4 1 C4.33 1.66 4.66 2.32 5 3 C2.23735711 3.59732819 -0.16032769 4 -3 4 C-2.01 2.68 -1.02 1.36 0 0 Z " fill="#DEE3D1" transform="translate(864,643)"/>
<path d="M0 0 C2.96175123 0.61277612 4.38058783 1.25372522 7 3 C7 3.66 7 4.32 7 5 C2.25 3.125 2.25 3.125 0 2 C0 1.34 0 0.68 0 0 Z " fill="#AE7D53" transform="translate(1036,564)"/>
<path d="M0 0 C0.66 0.33 1.32 0.66 2 1 C0.35 2.98 -1.3 4.96 -3 7 C-3.66 6.67 -4.32 6.34 -5 6 C-3.35 4.02 -1.7 2.04 0 0 Z " fill="#D3DAC5" transform="translate(899,419)"/>
<path d="M0 0 C-1.32 1.32 -2.64 2.64 -4 4 C-4.99 3.67 -5.98 3.34 -7 3 C-6.67 2.01 -6.34 1.02 -6 0 C-3.50907189 -1.24546405 -2.58919267 -0.7767578 0 0 Z " fill="#6E7657" transform="translate(963,394)"/>
</svg>
